<?xml version="1.0" encoding="utf-8"?>
<!-- Generator: Adobe Illustrator 24.0.3, SVG Export Plug-In . SVG Version: 6.00 Build 0)  -->
<svg version="1.1" id="Layer_1" xmlns="http://www.w3.org/2000/svg" xmlns:xlink="http://www.w3.org/1999/xlink" x="0px" y="0px"
	 viewBox="0 0 137 41" style="enable-background:new 0 0 137 41;" xml:space="preserve">
<style type="text/css">
	.st0{fill-rule:evenodd;clip-rule:evenodd;fill:#FFFFFF;}
	.st1{fill:#FFFFFF;}
	.st2{fill-rule:evenodd;clip-rule:evenodd;fill:url(#SVGID_1_);}
</style>
<g>
	<rect width="137" height="41"/>
	<path class="st0" d="M80.1,16.9c-1.2,0.1-2.3,0.7-3.1,1.6l-0.1,0.3v5.9c0.7,0.3,1.5,0.4,2.3,0.4c2.8,0,3.4-2.3,3.4-4.2
		C82.5,18.3,81.7,16.9,80.1,16.9z M65.7,22h-1.4c-2.8,0-3.1,1-3.1,1.8c0,1,0.6,1.6,1.8,1.6c1,0,2-0.5,2.8-1.2L65.7,22z M50,13.7
		c3.3,0,5.1,1.8,5.1,5.3v0.3V28h-3.9v-8c0-2.1-0.6-3-2-3c-1.2,0-1.9,0.5-2.9,1.6l-0.2,0.2v9.3h-3.9V16.6L41,16.5v-2.2l4.3-0.2
		c0,0,0.2,1,0.3,1.4C46.8,14.3,48.4,13.6,50,13.7z M76.9,8.7v6.5c1.1-1,2.5-1.5,4-1.4c3.5,0,5.8,2.6,5.8,6.8c0,4.9-2.8,7.7-7.7,7.7
		c-1.8,0-3.6-0.3-5.3-0.7l-0.6-0.2V11.2L71.7,11V8.9L76.9,8.7z M63.6,13.7c4,0,6,1.6,6,4.9v6.9l1.3,0.1v2.2l-4.4,0.1l-0.2-1.1
		c-1.2,1-2.6,1.5-4.2,1.4c-3.1,0-5-1.6-5-4.3c0-3,2.4-4.6,7.1-4.6h1.4v-0.4c0-1.4-0.4-2.2-2.6-2.2c-1.3,0-2.7,0.3-3.9,0.8h-0.2
		l-0.7-2.9l0.2-0.1C60.1,14,61.8,13.7,63.6,13.7z"/>
	<path class="st1" d="M136.6,1v39H136V1H136.6z M127.7,27.6c0.3,1.3,0.6,2.7,1,4c0.3-1.2,0.7-2.7,0.9-4h1.9c-0.5,2.1-1.1,4.1-1.9,6
		c-0.9,2-1.9,2.4-3,2.4c-0.3,0-0.6-0.1-0.9-0.2l0.1-1.4h0.8c0.4,0,0.6-0.2,1-0.9c-0.9-1.9-1.5-3.9-1.9-5.9H127.7z M122.9,27.5
		c1.9,0,2.7,1,2.7,2.8c-0.1,0.2-0.1,0.5-0.1,0.8h-3.7c0,0.8,0.4,1.2,1.4,1.2c0.7,0,1.4-0.1,2-0.2l0.2,1.4c-0.8,0.2-1.6,0.4-2.4,0.3
		c-2.1,0-3.1-0.9-3.1-3.1c-0.2-1.6,0.9-3,2.4-3.2H122.9L122.9,27.5z M113,29.9v0.7l0,0c0.2,1.6-1,3-2.6,3.2h-0.6l0,0
		c-1.5,0.2-2.9-0.9-3.1-2.4v-0.7l0,0c-0.2-1.6,1-3,2.6-3.2h0.6l0,0C111.4,27.3,112.8,28.4,113,29.9z M117,27.4
		c1.4,0,2.1,0.9,2.1,2.3v3.8l-1.8,0.1v-3.4c0-0.8-0.2-1.2-0.8-1.2c-0.4,0-0.9,0.3-1.1,0.6v3.9h-1.9v-5.9h1.4l0.2,0.6
		C115.6,27.7,116.3,27.4,117,27.4z M100.5,27.4c0.7-0.1,1.4,0.3,1.7,0.9c0.5-0.6,1.2-0.9,1.9-0.9c1.4,0,2.1,0.9,2.1,2.3v3.8
		l-1.9,0.1v-3.4c0-0.8-0.1-1.2-0.7-1.2c-0.5,0-0.7,0.2-1,0.6v3.9h-1.9v-3.4c0-0.8-0.1-1.2-0.7-1.2c-0.5,0-0.7,0.2-1,0.6v3.9h-2v-5.8
		h1.4l0.2,0.6C99.1,27.6,99.7,27.3,100.5,27.4z M109.9,29c-0.8,0-1.2,0.6-1.2,1.6c0,1.2,0.3,1.7,1.2,1.7c0.8,0,1.1-0.6,1.1-1.6
		C111,29.5,110.7,29,109.9,29z M122.7,28.8c-0.7,0-1,0.5-1,1.2h1.9C123.7,29.2,123.4,28.8,122.7,28.8z M122,18.7
		c1.9,0,2.7,0.6,2.7,2.1v3.9l-1.6,0.1l-0.1-0.5c-0.5,0.5-1.1,0.7-1.8,0.7c-1,0.1-1.9-0.6-2.1-1.6v-0.3l0,0c0-1.5,1.1-2,3.2-2h0.4
		v-0.2c0-0.5-0.2-0.8-1-0.8c-0.6,0-1.2,0.1-1.7,0.3l-0.3-1.3C120.4,18.8,121.2,18.7,122,18.7z M111.3,16.9v1.9h1.2v1.5h-1.2v2.1
		c0,0.8,0.2,0.9,0.7,0.9h0.5v1.3c-0.6,0.3-1,0.4-1.5,0.3c-0.8,0.1-1.6-0.5-1.7-1.3v-3.3h-0.8v-1.5h0.8l0.5-1.9H111.3z M114.8,16.6
		v2.7c0.5-0.4,1.1-0.6,1.7-0.6c1.4,0,2.1,0.8,2.1,2.4l0,0v3.8h-1.9v-3.4c0-0.8-0.2-1.2-0.8-1.2c-0.5,0-0.7,0.2-1.1,0.6l0,0v3.9h-1.9
		v-8.2H114.8z M128.9,18.6c1.4,0,2.1,0.9,2.1,2.3v3.8l-1.8,0.1v-3.4c0-0.8-0.2-1.2-0.8-1.2c-0.4,0-0.9,0.3-1.1,0.6v3.9h-1.9v-5.9
		h1.4l0.2,0.6C127.5,18.9,128.2,18.6,128.9,18.6z M122.7,22.3h-0.5c-0.9,0-1.3,0.2-1.3,0.8c0,0.3,0.3,0.6,0.6,0.6h0.1l0,0
		c0.4,0,0.8-0.2,1-0.5L122.7,22.3z M128.5,8.8c1.9,0,2.7,1,2.7,2.8c-0.1,0.2-0.1,0.5-0.1,0.8h-3.7c0,0.8,0.4,1.2,1.4,1.2
		c0.7,0,1.4-0.1,2-0.2l0.2,1.4c-0.8,0.2-1.6,0.4-2.4,0.3c-2.1,0-3.1-0.9-3.1-3.1c-0.2-1.6,0.9-3,2.4-3.2H128.5L128.5,8.8z
		 M121.1,11.1v0.7l0,0c0.1,1.6-1.1,3.1-2.7,3.2H118l0,0c-1.5,0.2-2.9-0.9-3.1-2.4v-0.7l0,0c-0.2-1.6,0.9-3.1,2.5-3.2h0.6l0,0
		C119.5,8.5,120.9,9.6,121.1,11.1z M108.7,8.7c0.7-0.1,1.4,0.3,1.7,0.9c0.5-0.6,1.2-0.9,1.9-0.9c1.4,0,2.1,0.9,2.1,2.3v3.8h-2v-3.4
		c0-0.8-0.1-1.2-0.7-1.2c-0.5,0-0.7,0.2-1,0.6v3.9h-1.9v-3.4c0-0.8-0.1-1.2-0.7-1.2c-0.5,0-0.7,0.2-1,0.6v3.9h-1.9V8.9h1.4l0.2,0.6
		C107.3,8.9,107.9,8.6,108.7,8.7z M125.5,8.9l-0.2,1.7c-0.2-0.1-0.4-0.1-0.6-0.1c-0.3,0-0.6,0.3-1,0.8v3.5h-1.9V8.9h1.5l0.2,0.9
		c0.5-0.7,0.9-1,1.4-1C125.1,8.8,125.3,8.8,125.5,8.9z M118,10.2c-0.8,0-1.2,0.6-1.2,1.6c0,1.2,0.3,1.7,1.2,1.7
		c0.8,0,1.1-0.6,1.1-1.6C119.2,10.7,118.8,10.2,118,10.2z M128.4,10.1c-0.7,0-1,0.5-1,1.2h1.9C129.3,10.5,129.1,10.1,128.4,10.1z"/>
	
		<linearGradient id="SVGID_1_" gradientUnits="userSpaceOnUse" x1="-593.9874" y1="393.4676" x2="-593.8741" y2="392.5038" gradientTransform="matrix(31.3966 0 0 -31.5273 18668.4961 12410.5371)">
		<stop  offset="3.279000e-02" style="stop-color:#E74549"/>
		<stop  offset="0.8495" style="stop-color:#C20000"/>
	</linearGradient>
	<path class="st2" d="M19.4,11.8l5.4-6.5c0.1-0.2,0.3-0.2,0.4-0.3c0.2,0.1,0.3,0.2,0.3,0.5l1.8,8c0.1,0.2-0.1,0.3-0.2,0.5l-6.7,8
		c-0.1,0.1,0,0.3,0.2,0.1l7.9-8.3c0.1-0.1,0.3-0.2,0.5-0.2h2.8c0.3,0,0.3,0.2,0.2,0.3l-6.8,8.2c-0.1,0.1,0,0.3,0.2,0.1l8-8.4
		c0.1-0.1,0.2-0.2,0.4-0.2h2.1c0.5,0,0.6,0.3,0.4,0.6l-5.4,6.6l5.3,6.5c0.1,0.1,0.2,0.3,0.1,0.5c-0.1,0.2-0.2,0.3-0.5,0.3h-8.5
		l-1.9,8c-0.1,0.2-0.2,0.4-0.3,0.4c-0.2,0.1-0.3-0.1-0.5-0.2l-5.4-6.5l-7.6,3.6c-0.2,0.1-0.4,0.1-0.5,0C11,33.3,11,33.1,11,32.9
		l1.9-8.1l-7.6-3.7C5.2,21,5,20.8,5,20.7c0-0.2,0.1-0.3,0.4-0.4l7.6-3.6l-1.8-8c0-0.3,0-0.5,0.1-0.6c0.2-0.1,0.4-0.1,0.5,0
		L19.4,11.8z"/>
</g>
</svg>
